# xmcd
#
# Track frame offsets:
#	150
#	13775
#	26461
#	39766
#	52651
#	66042
#	78421
#	91344
#	104556
#	117005
#	130432
#	143280
#	156319
#	169217
#	181423
#	193176
#	205584
#	218808
#	231600
#	243397
#	257002
#	269718
#	282205
#	295123
#	306932
# Disc length: 4256 seconds
# Revision: 1
# Processed by: cddbd v1.5.1PL2 Copyright (c) Steve Scherf et al.
#
# Submitted via: libkcddb 0.10
#
DISCID=66109e19
DTITLE=Homer and Jethro - Ground hog
DYEAR=1900
DGENRE=Unknown
TTITLE0=Boll Weevil
TTITLE1=Rye Whiskey
TTITLE2=Always
TTITLE3=Margie
TTITLE4=Sympathy-Symphonie
TTITLE5=Night and Day
TTITLE6=Poor Little Liza Poor Girl
TTITLE7=Cielito Lindo
TTITLE8=Don't Let Your Sweet Love Die
TTITLE9=Five Minutes More
TTITLE10=Ground Hog
TTITLE11=Bill Bailey
TTITLE12=I'm Glad I Waited for You
TTITLE13=Fly Birdie Fly
TTITLE14=I Wonder Who's Kissing Her Now
TTITLE15=Blue Tailed Fly
TTITLE16=I'll Close My Eyes
TTITLE17=Donkey Serenade
TTITLE18=It Bruised Her Somewhat
TTITLE19=I Feel Old Age Creeping On
TTITLE20=Goodbye Old Booze
TTITLE21=Don't Telephone, Don't Telegraph
TTITLE22=When It's Long Handle Time in Tennessee
TTITLE23=Glow Worm
TTITLE24=All Night Long
EXTD=Country
EXTT0=
EXTT1=
EXTT2=
EXTT3=
EXTT4=
EXTT5=
EXTT6=
EXTT7=
EXTT8=
EXTT9=
EXTT10=
EXTT11=
EXTT12=
EXTT13=
EXTT14=
EXTT15=
EXTT16=
EXTT17=
EXTT18=
EXTT19=
EXTT20=
EXTT21=
EXTT22=
EXTT23=
EXTT24=
PLAYORDER=
